<svg xmlns="http://www.w3.org/2000/svg" width="1200" height="300" viewBox="0 0 1200 300" role="img" aria-label="Edgar Bruney banner">
  <defs>
    <linearGradient id="bg" x1="0" y1="0" x2="1" y2="1">
      <stop offset="0" stop-color="#0b0f17"/>
      <stop offset="1" stop-color="#0e1420"/>
    </linearGradient>
    <linearGradient id="accent" x1="0" y1="0" x2="1" y2="0">
      <stop offset="0" stop-color="#0062ff"/>
      <stop offset="0.55" stop-color="#4f8bff"/>
      <stop offset="1" stop-color="#53b14f"/>
    </linearGradient>
  </defs>

  <rect width="1200" height="300" rx="14" fill="url(#bg)"/>

  <!-- soft dot field (right) -->
  <g>
    <circle cx="560" cy="60" r="1.6" fill="#3d4657" opacity="0.05"/>
    <circle cx="586" cy="60" r="1.6" fill="#3d4657" opacity="0.05"/>
    <circle cx="612" cy="60" r="1.6" fill="#3d4657" opacity="0.06"/>
    <circle cx="638" cy="60" r="1.6" fill="#3d4657" opacity="0.06"/>
    <circle cx="664" cy="60" r="1.6" fill="#3d4657" opacity="0.07"/>
    <circle cx="690" cy="60" r="1.6" fill="#3d4657" opacity="0.07"/>
    <circle cx="716" cy="60" r="1.6" fill="#3d4657" opacity="0.08"/>
    <circle cx="742" cy="60" r="1.6" fill="#3d4657" opacity="0.08"/>
    <circle cx="768" cy="60" r="1.6" fill="#3d4657" opacity="0.08"/>
    <circle cx="794" cy="60" r="1.6" fill="#3d4657" opacity="0.09"/>
    <circle cx="820" cy="60" r="1.6" fill="#3d4657" opacity="0.09"/>
    <circle cx="846" cy="60" r="1.6" fill="#3d4657" opacity="0.10"/>
    <circle cx="872" cy="60" r="1.6" fill="#3d4657" opacity="0.10"/>
    <circle cx="898" cy="60" r="1.6" fill="#3d4657" opacity="0.11"/>
    <circle cx="924" cy="60" r="1.6" fill="#3d4657" opacity="0.11"/>
    <circle cx="950" cy="60" r="1.6" fill="#3d4657" opacity="0.12"/>
    <circle cx="976" cy="60" r="1.6" fill="#3d4657" opacity="0.12"/>
    <circle cx="1002" cy="60" r="1.6" fill="#3d4657" opacity="0.12"/>
    <circle cx="1028" cy="60" r="1.6" fill="#3d4657" opacity="0.13"/>
    <circle cx="1054" cy="60" r="1.6" fill="#3d4657" opacity="0.13"/>
    <circle cx="1080" cy="60" r="1.6" fill="#3d4657" opacity="0.14"/>
    <circle cx="1106" cy="60" r="1.6" fill="#3d4657" opacity="0.14"/>
    <circle cx="1132" cy="60" r="1.6" fill="#3d4657" opacity="0.15"/>
    <circle cx="1158" cy="60" r="1.6" fill="#3d4657" opacity="0.15"/>
    <circle cx="560" cy="86" r="1.6" fill="#3d4657" opacity="0.05"/>
    <circle cx="586" cy="86" r="1.6" fill="#3d4657" opacity="0.05"/>
    <circle cx="612" cy="86" r="1.6" fill="#3d4657" opacity="0.06"/>
    <circle cx="638" cy="86" r="1.6" fill="#3d4657" opacity="0.06"/>
    <circle cx="664" cy="86" r="1.6" fill="#3d4657" opacity="0.07"/>
    <circle cx="690" cy="86" r="1.6" fill="#3d4657" opacity="0.07"/>
    <circle cx="716" cy="86" r="1.6" fill="#3d4657" opacity="0.08"/>
    <circle cx="742" cy="86" r="1.6" fill="#3d4657" opacity="0.08"/>
    <circle cx="768" cy="86" r="1.6" fill="#3d4657" opacity="0.08"/>
    <circle cx="794" cy="86" r="1.6" fill="#3d4657" opacity="0.09"/>
    <circle cx="820" cy="86" r="1.6" fill="#3d4657" opacity="0.09"/>
    <circle cx="846" cy="86" r="1.6" fill="#3d4657" opacity="0.10"/>
    <circle cx="872" cy="86" r="1.6" fill="#3d4657" opacity="0.10"/>
    <circle cx="898" cy="86" r="1.6" fill="#3d4657" opacity="0.11"/>
    <circle cx="924" cy="86" r="1.6" fill="#3d4657" opacity="0.11"/>
    <circle cx="950" cy="86" r="1.6" fill="#3d4657" opacity="0.12"/>
    <circle cx="976" cy="86" r="1.6" fill="#3d4657" opacity="0.12"/>
    <circle cx="1002" cy="86" r="1.6" fill="#3d4657" opacity="0.12"/>
    <circle cx="1028" cy="86" r="1.6" fill="#3d4657" opacity="0.13"/>
    <circle cx="1054" cy="86" r="1.6" fill="#3d4657" opacity="0.13"/>
    <circle cx="1080" cy="86" r="1.6" fill="#3d4657" opacity="0.14"/>
    <circle cx="1106" cy="86" r="1.6" fill="#3d4657" opacity="0.14"/>
    <circle cx="1132" cy="86" r="1.6" fill="#3d4657" opacity="0.15"/>
    <circle cx="1158" cy="86" r="1.6" fill="#3d4657" opacity="0.15"/>
    <circle cx="560" cy="112" r="1.6" fill="#3d4657" opacity="0.05"/>
    <circle cx="586" cy="112" r="1.6" fill="#3d4657" opacity="0.05"/>
    <circle cx="612" cy="112" r="1.6" fill="#3d4657" opacity="0.06"/>
    <circle cx="638" cy="112" r="1.6" fill="#3d4657" opacity="0.06"/>
    <circle cx="664" cy="112" r="1.6" fill="#3d4657" opacity="0.07"/>
    <circle cx="690" cy="112" r="1.6" fill="#3d4657" opacity="0.07"/>
    <circle cx="716" cy="112" r="1.6" fill="#3d4657" opacity="0.08"/>
    <circle cx="742" cy="112" r="1.6" fill="#3d4657" opacity="0.08"/>
    <circle cx="768" cy="112" r="1.6" fill="#3d4657" opacity="0.08"/>
    <circle cx="794" cy="112" r="1.6" fill="#3d4657" opacity="0.09"/>
    <circle cx="820" cy="112" r="1.6" fill="#3d4657" opacity="0.09"/>
    <circle cx="846" cy="112" r="1.6" fill="#3d4657" opacity="0.10"/>
    <circle cx="872" cy="112" r="1.6" fill="#3d4657" opacity="0.10"/>
    <circle cx="898" cy="112" r="1.6" fill="#3d4657" opacity="0.11"/>
    <circle cx="924" cy="112" r="1.6" fill="#3d4657" opacity="0.11"/>
    <circle cx="950" cy="112" r="1.6" fill="#3d4657" opacity="0.12"/>
    <circle cx="976" cy="112" r="1.6" fill="#3d4657" opacity="0.12"/>
    <circle cx="1002" cy="112" r="1.6" fill="#3d4657" opacity="0.12"/>
    <circle cx="1028" cy="112" r="1.6" fill="#3d4657" opacity="0.13"/>
    <circle cx="1054" cy="112" r="1.6" fill="#3d4657" opacity="0.13"/>
    <circle cx="1080" cy="112" r="1.6" fill="#3d4657" opacity="0.14"/>
    <circle cx="1106" cy="112" r="1.6" fill="#3d4657" opacity="0.14"/>
    <circle cx="1132" cy="112" r="1.6" fill="#3d4657" opacity="0.15"/>
    <circle cx="1158" cy="112" r="1.6" fill="#3d4657" opacity="0.15"/>
    <circle cx="560" cy="138" r="1.6" fill="#3d4657" opacity="0.05"/>
    <circle cx="586" cy="138" r="1.6" fill="#3d4657" opacity="0.05"/>
    <circle cx="612" cy="138" r="1.6" fill="#3d4657" opacity="0.06"/>
    <circle cx="638" cy="138" r="1.6" fill="#3d4657" opacity="0.06"/>
    <circle cx="664" cy="138" r="1.6" fill="#3d4657" opacity="0.07"/>
    <circle cx="690" cy="138" r="1.6" fill="#3d4657" opacity="0.07"/>
    <circle cx="716" cy="138" r="1.6" fill="#3d4657" opacity="0.08"/>
    <circle cx="742" cy="138" r="1.6" fill="#3d4657" opacity="0.08"/>
    <circle cx="768" cy="138" r="1.6" fill="#3d4657" opacity="0.08"/>
    <circle cx="794" cy="138" r="1.6" fill="#3d4657" opacity="0.09"/>
    <circle cx="820" cy="138" r="1.6" fill="#3d4657" opacity="0.09"/>
    <circle cx="846" cy="138" r="1.6" fill="#3d4657" opacity="0.10"/>
    <circle cx="872" cy="138" r="1.6" fill="#3d4657" opacity="0.10"/>
    <circle cx="898" cy="138" r="1.6" fill="#3d4657" opacity="0.11"/>
    <circle cx="924" cy="138" r="1.6" fill="#3d4657" opacity="0.11"/>
    <circle cx="950" cy="138" r="1.6" fill="#3d4657" opacity="0.12"/>
    <circle cx="976" cy="138" r="1.6" fill="#3d4657" opacity="0.12"/>
    <circle cx="1002" cy="138" r="1.6" fill="#3d4657" opacity="0.12"/>
    <circle cx="1028" cy="138" r="1.6" fill="#3d4657" opacity="0.13"/>
    <circle cx="1054" cy="138" r="1.6" fill="#3d4657" opacity="0.13"/>
    <circle cx="1080" cy="138" r="1.6" fill="#3d4657" opacity="0.14"/>
    <circle cx="1106" cy="138" r="1.6" fill="#3d4657" opacity="0.14"/>
    <circle cx="1132" cy="138" r="1.6" fill="#3d4657" opacity="0.15"/>
    <circle cx="1158" cy="138" r="1.6" fill="#3d4657" opacity="0.15"/>
    <circle cx="560" cy="164" r="1.6" fill="#3d4657" opacity="0.05"/>
    <circle cx="586" cy="164" r="1.6" fill="#3d4657" opacity="0.05"/>
    <circle cx="612" cy="164" r="1.6" fill="#3d4657" opacity="0.06"/>
    <circle cx="638" cy="164" r="1.6" fill="#3d4657" opacity="0.06"/>
    <circle cx="664" cy="164" r="1.6" fill="#3d4657" opacity="0.07"/>
    <circle cx="690" cy="164" r="1.6" fill="#3d4657" opacity="0.07"/>
    <circle cx="716" cy="164" r="1.6" fill="#3d4657" opacity="0.08"/>
    <circle cx="742" cy="164" r="1.6" fill="#3d4657" opacity="0.08"/>
    <circle cx="768" cy="164" r="1.6" fill="#3d4657" opacity="0.08"/>
    <circle cx="794" cy="164" r="1.6" fill="#3d4657" opacity="0.09"/>
    <circle cx="820" cy="164" r="1.6" fill="#3d4657" opacity="0.09"/>
    <circle cx="846" cy="164" r="1.6" fill="#3d4657" opacity="0.10"/>
    <circle cx="872" cy="164" r="1.6" fill="#3d4657" opacity="0.10"/>
    <circle cx="898" cy="164" r="1.6" fill="#3d4657" opacity="0.11"/>
    <circle cx="924" cy="164" r="1.6" fill="#3d4657" opacity="0.11"/>
    <circle cx="950" cy="164" r="1.6" fill="#3d4657" opacity="0.12"/>
    <circle cx="976" cy="164" r="1.6" fill="#3d4657" opacity="0.12"/>
    <circle cx="1002" cy="164" r="1.6" fill="#3d4657" opacity="0.12"/>
    <circle cx="1028" cy="164" r="1.6" fill="#3d4657" opacity="0.13"/>
    <circle cx="1054" cy="164" r="1.6" fill="#3d4657" opacity="0.13"/>
    <circle cx="1080" cy="164" r="1.6" fill="#3d4657" opacity="0.14"/>
    <circle cx="1106" cy="164" r="1.6" fill="#3d4657" opacity="0.14"/>
    <circle cx="1132" cy="164" r="1.6" fill="#3d4657" opacity="0.15"/>
    <circle cx="1158" cy="164" r="1.6" fill="#3d4657" opacity="0.15"/>
    <circle cx="560" cy="190" r="1.6" fill="#3d4657" opacity="0.05"/>
    <circle cx="586" cy="190" r="1.6" fill="#3d4657" opacity="0.05"/>
    <circle cx="612" cy="190" r="1.6" fill="#3d4657" opacity="0.06"/>
    <circle cx="638" cy="190" r="1.6" fill="#3d4657" opacity="0.06"/>
    <circle cx="664" cy="190" r="1.6" fill="#3d4657" opacity="0.07"/>
    <circle cx="690" cy="190" r="1.6" fill="#3d4657" opacity="0.07"/>
    <circle cx="716" cy="190" r="1.6" fill="#3d4657" opacity="0.08"/>
    <circle cx="742" cy="190" r="1.6" fill="#3d4657" opacity="0.08"/>
    <circle cx="768" cy="190" r="1.6" fill="#3d4657" opacity="0.08"/>
    <circle cx="794" cy="190" r="1.6" fill="#3d4657" opacity="0.09"/>
    <circle cx="820" cy="190" r="1.6" fill="#3d4657" opacity="0.09"/>
    <circle cx="846" cy="190" r="1.6" fill="#3d4657" opacity="0.10"/>
    <circle cx="872" cy="190" r="1.6" fill="#3d4657" opacity="0.10"/>
    <circle cx="898" cy="190" r="1.6" fill="#3d4657" opacity="0.11"/>
    <circle cx="924" cy="190" r="1.6" fill="#3d4657" opacity="0.11"/>
    <circle cx="950" cy="190" r="1.6" fill="#3d4657" opacity="0.12"/>
    <circle cx="976" cy="190" r="1.6" fill="#3d4657" opacity="0.12"/>
    <circle cx="1002" cy="190" r="1.6" fill="#3d4657" opacity="0.12"/>
    <circle cx="1028" cy="190" r="1.6" fill="#3d4657" opacity="0.13"/>
    <circle cx="1054" cy="190" r="1.6" fill="#3d4657" opacity="0.13"/>
    <circle cx="1080" cy="190" r="1.6" fill="#3d4657" opacity="0.14"/>
    <circle cx="1106" cy="190" r="1.6" fill="#3d4657" opacity="0.14"/>
    <circle cx="1132" cy="190" r="1.6" fill="#3d4657" opacity="0.15"/>
    <circle cx="1158" cy="190" r="1.6" fill="#3d4657" opacity="0.15"/>
    <circle cx="560" cy="216" r="1.6" fill="#3d4657" opacity="0.05"/>
    <circle cx="586" cy="216" r="1.6" fill="#3d4657" opacity="0.05"/>
    <circle cx="612" cy="216" r="1.6" fill="#3d4657" opacity="0.06"/>
    <circle cx="638" cy="216" r="1.6" fill="#3d4657" opacity="0.06"/>
    <circle cx="664" cy="216" r="1.6" fill="#3d4657" opacity="0.07"/>
    <circle cx="690" cy="216" r="1.6" fill="#3d4657" opacity="0.07"/>
    <circle cx="716" cy="216" r="1.6" fill="#3d4657" opacity="0.08"/>
    <circle cx="742" cy="216" r="1.6" fill="#3d4657" opacity="0.08"/>
    <circle cx="768" cy="216" r="1.6" fill="#3d4657" opacity="0.08"/>
    <circle cx="794" cy="216" r="1.6" fill="#3d4657" opacity="0.09"/>
    <circle cx="820" cy="216" r="1.6" fill="#3d4657" opacity="0.09"/>
    <circle cx="846" cy="216" r="1.6" fill="#3d4657" opacity="0.10"/>
    <circle cx="872" cy="216" r="1.6" fill="#3d4657" opacity="0.10"/>
    <circle cx="898" cy="216" r="1.6" fill="#3d4657" opacity="0.11"/>
    <circle cx="924" cy="216" r="1.6" fill="#3d4657" opacity="0.11"/>
    <circle cx="950" cy="216" r="1.6" fill="#3d4657" opacity="0.12"/>
    <circle cx="976" cy="216" r="1.6" fill="#3d4657" opacity="0.12"/>
    <circle cx="1002" cy="216" r="1.6" fill="#3d4657" opacity="0.12"/>
    <circle cx="1028" cy="216" r="1.6" fill="#3d4657" opacity="0.13"/>
    <circle cx="1054" cy="216" r="1.6" fill="#3d4657" opacity="0.13"/>
    <circle cx="1080" cy="216" r="1.6" fill="#3d4657" opacity="0.14"/>
    <circle cx="1106" cy="216" r="1.6" fill="#3d4657" opacity="0.14"/>
    <circle cx="1132" cy="216" r="1.6" fill="#3d4657" opacity="0.15"/>
    <circle cx="1158" cy="216" r="1.6" fill="#3d4657" opacity="0.15"/>
    <circle cx="560" cy="242" r="1.6" fill="#3d4657" opacity="0.05"/>
    <circle cx="586" cy="242" r="1.6" fill="#3d4657" opacity="0.05"/>
    <circle cx="612" cy="242" r="1.6" fill="#3d4657" opacity="0.06"/>
    <circle cx="638" cy="242" r="1.6" fill="#3d4657" opacity="0.06"/>
    <circle cx="664" cy="242" r="1.6" fill="#3d4657" opacity="0.07"/>
    <circle cx="690" cy="242" r="1.6" fill="#3d4657" opacity="0.07"/>
    <circle cx="716" cy="242" r="1.6" fill="#3d4657" opacity="0.08"/>
    <circle cx="742" cy="242" r="1.6" fill="#3d4657" opacity="0.08"/>
    <circle cx="768" cy="242" r="1.6" fill="#3d4657" opacity="0.08"/>
    <circle cx="794" cy="242" r="1.6" fill="#3d4657" opacity="0.09"/>
    <circle cx="820" cy="242" r="1.6" fill="#3d4657" opacity="0.09"/>
    <circle cx="846" cy="242" r="1.6" fill="#3d4657" opacity="0.10"/>
    <circle cx="872" cy="242" r="1.6" fill="#3d4657" opacity="0.10"/>
    <circle cx="898" cy="242" r="1.6" fill="#3d4657" opacity="0.11"/>
    <circle cx="924" cy="242" r="1.6" fill="#3d4657" opacity="0.11"/>
    <circle cx="950" cy="242" r="1.6" fill="#3d4657" opacity="0.12"/>
    <circle cx="976" cy="242" r="1.6" fill="#3d4657" opacity="0.12"/>
    <circle cx="1002" cy="242" r="1.6" fill="#3d4657" opacity="0.12"/>
    <circle cx="1028" cy="242" r="1.6" fill="#3d4657" opacity="0.13"/>
    <circle cx="1054" cy="242" r="1.6" fill="#3d4657" opacity="0.13"/>
    <circle cx="1080" cy="242" r="1.6" fill="#3d4657" opacity="0.14"/>
    <circle cx="1106" cy="242" r="1.6" fill="#3d4657" opacity="0.14"/>
    <circle cx="1132" cy="242" r="1.6" fill="#3d4657" opacity="0.15"/>
    <circle cx="1158" cy="242" r="1.6" fill="#3d4657" opacity="0.15"/>
  </g>

  <!-- orbit motif (space + quantum), far right, very subtle -->
  <g transform="translate(1000,150)" fill="none" stroke="#2b3446" stroke-width="1.4" opacity="0.7">
    <ellipse rx="120" ry="46" transform="rotate(-24)"/>
    <ellipse rx="120" ry="46" transform="rotate(36)"/>
    <ellipse rx="120" ry="46" transform="rotate(90)"/>
  </g>
  <g transform="translate(1000,150)">
    <circle r="7" fill="#53b14f"/>
    <circle cx="110" cy="-49" r="3.5" fill="#4f8bff"/>
    <circle cx="-96" cy="66" r="3" fill="#8b5cf6"/>
  </g>

  <!-- left content -->
  <text x="70" y="120" fill="#e6edf3" font-size="64" font-weight="800"
        font-family="Segoe UI, Helvetica, Arial, sans-serif" letter-spacing="1">Edgar Bruney</text>

  <rect x="72" y="140" width="150" height="4" rx="2" fill="url(#accent)"/>

  <text x="72" y="182" fill="#9fb0c3" font-size="21" font-weight="600"
        font-family="Segoe UI, Helvetica, Arial, sans-serif" letter-spacing="0.5">Full Stack Engineer @ IBM</text>

  <text x="72" y="224" fill="#5f6b7a" font-size="15.5" letter-spacing="2.5"
        font-family="Segoe UI, Helvetica, Arial, sans-serif">AI AGENTS &#183; QUANTUM &#183; MULTI-CLOUD</text>

  <text x="72" y="256" fill="#48525f" font-size="13.5" letter-spacing="1"
        font-family="Segoe UI, Helvetica, Arial, sans-serif">Zapopan, Mexico</text>
</svg>